<svg vertion="1.1" xmlns="http://www.w3.org/2000/svg" width="561", height="1085" style="">
<rect x="4" y="529" width="84" height="27" fill="red" />
<text x="46" y="542" font-size="16" style="dominant-baseline:middle;text-anchor:middle;" fill="white" >volcanos</text>
<rect x="96" y="144" width="84" height="27" fill="red" />
<text x="138" y="157" font-size="16" style="dominant-baseline:middle;text-anchor:middle;" fill="white" >proto.js</text>
<rect x="188" y="4" width="152" height="27" fill="red" />
<text x="264" y="17" font-size="16" style="dominant-baseline:middle;text-anchor:middle;" fill="white" >ID 生成器</text>
<rect x="188" y="39" width="152" height="27" fill="red" />
<text x="264" y="52" font-size="16" style="dominant-baseline:middle;text-anchor:middle;" fill="white" >Log 日志器</text>
<rect x="188" y="74" width="152" height="27" fill="red" />
<text x="264" y="87" font-size="16" style="dominant-baseline:middle;text-anchor:middle;" fill="white" >Conf 配置器</text>
<rect x="188" y="109" width="152" height="27" fill="red" />
<text x="264" y="122" font-size="16" style="dominant-baseline:middle;text-anchor:middle;" fill="white" >Sync 同步器</text>
<rect x="188" y="144" width="152" height="27" fill="red" />
<text x="264" y="157" font-size="16" style="dominant-baseline:middle;text-anchor:middle;" fill="white" >Timer 定时器</text>
<rect x="188" y="179" width="152" height="27" fill="red" />
<text x="264" y="192" font-size="16" style="dominant-baseline:middle;text-anchor:middle;" fill="white" >Event 触发器</text>
<rect x="188" y="214" width="152" height="27" fill="red" />
<text x="264" y="227" font-size="16" style="dominant-baseline:middle;text-anchor:middle;" fill="white" >Dream 构造器</text>
<rect x="188" y="249" width="152" height="27" fill="red" />
<text x="264" y="262" font-size="16" style="dominant-baseline:middle;text-anchor:middle;" fill="white" >Cache 缓存器</text>
<rect x="188" y="284" width="152" height="27" fill="red" />
<text x="264" y="297" font-size="16" style="dominant-baseline:middle;text-anchor:middle;" fill="white" >Story 存储器</text>
<rect x="96" y="529" width="84" height="27" fill="blue" />
<text x="138" y="542" font-size="16" style="dominant-baseline:middle;text-anchor:middle;" fill="white" >frame.js</text>
<rect x="188" y="319" width="152" height="27" fill="blue" />
<text x="264" y="332" font-size="16" style="dominant-baseline:middle;text-anchor:middle;" fill="white" >Page</text>
<rect x="188" y="424" width="152" height="27" fill="blue" />
<text x="264" y="437" font-size="16" style="dominant-baseline:middle;text-anchor:middle;" fill="white" >Pane</text>
<rect x="348" y="354" width="209" height="27" fill="red" />
<text x="452" y="367" font-size="16" style="dominant-baseline:middle;text-anchor:middle;" fill="white" >base 基础模块</text>
<rect x="348" y="389" width="209" height="27" fill="red" />
<text x="452" y="402" font-size="16" style="dominant-baseline:middle;text-anchor:middle;" fill="white" >core 核心模块</text>
<rect x="348" y="424" width="209" height="27" fill="red" />
<text x="452" y="437" font-size="16" style="dominant-baseline:middle;text-anchor:middle;" fill="white" >misc 工具模块</text>
<rect x="348" y="459" width="209" height="27" fill="red" />
<text x="452" y="472" font-size="16" style="dominant-baseline:middle;text-anchor:middle;" fill="white" >page 网页模块</text>
<rect x="348" y="494" width="209" height="27" fill="red" />
<text x="452" y="507" font-size="16" style="dominant-baseline:middle;text-anchor:middle;" fill="white" >user 用户模块</text>
<rect x="188" y="529" width="152" height="27" fill="blue" />
<text x="264" y="542" font-size="16" style="dominant-baseline:middle;text-anchor:middle;" fill="white" >Plugin</text>
<rect x="188" y="634" width="152" height="27" fill="blue" />
<text x="264" y="647" font-size="16" style="dominant-baseline:middle;text-anchor:middle;" fill="white" >Inputs</text>
<rect x="348" y="564" width="209" height="27" fill="red" />
<text x="452" y="577" font-size="16" style="dominant-baseline:middle;text-anchor:middle;" fill="white" >onimport 导入数据</text>
<rect x="348" y="599" width="209" height="27" fill="red" />
<text x="452" y="612" font-size="16" style="dominant-baseline:middle;text-anchor:middle;" fill="white" >onaction 控件交互</text>
<rect x="348" y="634" width="209" height="27" fill="red" />
<text x="452" y="647" font-size="16" style="dominant-baseline:middle;text-anchor:middle;" fill="white" >onchoice 控件菜单</text>
<rect x="348" y="669" width="209" height="27" fill="red" />
<text x="452" y="682" font-size="16" style="dominant-baseline:middle;text-anchor:middle;" fill="white" >ondetail 控件详情</text>
<rect x="348" y="704" width="209" height="27" fill="red" />
<text x="452" y="717" font-size="16" style="dominant-baseline:middle;text-anchor:middle;" fill="white" >onexport 导出数据</text>
<rect x="188" y="739" width="152" height="27" fill="blue" />
<text x="264" y="752" font-size="16" style="dominant-baseline:middle;text-anchor:middle;" fill="white" >Output</text>
<rect x="96" y="914" width="84" height="27" fill="red" />
<text x="138" y="927" font-size="16" style="dominant-baseline:middle;text-anchor:middle;" fill="white" >order.js</text>
<rect x="188" y="774" width="152" height="27" fill="red" />
<text x="264" y="787" font-size="16" style="dominant-baseline:middle;text-anchor:middle;" fill="white" >Header</text>
<rect x="188" y="809" width="152" height="27" fill="red" />
<text x="264" y="822" font-size="16" style="dominant-baseline:middle;text-anchor:middle;" fill="white" >Ocean</text>
<rect x="188" y="844" width="152" height="27" fill="red" />
<text x="264" y="857" font-size="16" style="dominant-baseline:middle;text-anchor:middle;" fill="white" >River</text>
<rect x="188" y="879" width="152" height="27" fill="red" />
<text x="264" y="892" font-size="16" style="dominant-baseline:middle;text-anchor:middle;" fill="white" >Target</text>
<rect x="188" y="914" width="152" height="27" fill="red" />
<text x="264" y="927" font-size="16" style="dominant-baseline:middle;text-anchor:middle;" fill="white" >Source</text>
<rect x="188" y="949" width="152" height="27" fill="red" />
<text x="264" y="962" font-size="16" style="dominant-baseline:middle;text-anchor:middle;" fill="white" >Action</text>
<rect x="188" y="984" width="152" height="27" fill="red" />
<text x="264" y="997" font-size="16" style="dominant-baseline:middle;text-anchor:middle;" fill="white" >Storm</text>
<rect x="188" y="1019" width="152" height="27" fill="red" />
<text x="264" y="1032" font-size="16" style="dominant-baseline:middle;text-anchor:middle;" fill="white" >Steam</text>
<rect x="188" y="1054" width="152" height="27" fill="red" />
<text x="264" y="1067" font-size="16" style="dominant-baseline:middle;text-anchor:middle;" fill="white" >Footer</text>
</svg>


